<svg width="329" height="69" viewBox="0 0 329 69" fill="none" xmlns="http://www.w3.org/2000/svg">
<path d="M319.727 63.6132H317.963V62.8838H322.35V63.6132H320.586V68.0963H319.727V63.6132Z" fill="#221F20"/>
<path d="M323.103 62.8838H324.395L325.51 66.2271C325.577 66.4348 325.657 66.7362 325.749 67.1313H325.78C325.873 66.7058 325.951 66.4044 326.012 66.2271L327.119 62.8838H328.388V68.0963H327.529V64.6922L327.56 63.7576H327.506C327.454 63.9856 327.408 64.1654 327.367 64.2971L326.09 68.0963H325.339L324.078 64.2971C324.052 64.2211 324.016 64.0919 323.97 63.9096L323.931 63.7576H323.892L323.916 64.6922V68.0963H323.103V62.8838Z" fill="#221F20"/>
<path d="M309.76 68.1933V52.2568H276.036V42.3243H302.852V25.6466H276.036V15.9365H309.092V0H257.02V68.1933H309.76Z" fill="#221F20"/>
<path d="M45.2382 68.1936H64.2546V0.000244141H45.2382V26.907H18.9421V0.000244141H0V68.1936H18.9421V44.4741H45.2382V68.1936Z" fill="#221F20"/>
<path d="M123.01 0H104.068V68.1933H123.01V0Z" fill="#221F20"/>
<path d="M205.691 0L192.097 47.4388H191.132H189.795L176.349 0H156.145L179.024 68.1933H202.126L224.93 0H205.691Z" fill="#221F20"/>
</svg>
